<svg width="800" height="300" xmlns="http://www.w3.org/2000/svg">
  <defs>
    <linearGradient id="bg" x1="0%" y1="0%" x2="100%" y2="100%">
      <stop offset="0%" style="stop-color:#0a0a0a"/>
      <stop offset="25%" style="stop-color:#1a1a2e"/>
      <stop offset="50%" style="stop-color:#16213e"/>
      <stop offset="75%" style="stop-color:#0f3460"/>
      <stop offset="100%" style="stop-color:#000000"/>
    </linearGradient>
    
    <linearGradient id="title-glow" x1="0%" y1="0%" x2="100%" y2="0%">
      <stop offset="0%" style="stop-color:#00ff88"/>
      <stop offset="50%" style="stop-color:#ffffff"/>
      <stop offset="100%" style="stop-color:#00ff88"/>
    </linearGradient>
    
    <linearGradient id="paypal-btn" x1="0%" y1="0%" x2="100%" y2="100%">
      <stop offset="0%" style="stop-color:#0070ba"/>
      <stop offset="100%" style="stop-color:#003087"/>
    </linearGradient>
    
    <linearGradient id="badge1" x1="0%" y1="0%" x2="100%" y2="100%">
      <stop offset="0%" style="stop-color:#ff6b6b"/>
      <stop offset="100%" style="stop-color:#ffd93d"/>
    </linearGradient>
    
    <linearGradient id="badge2" x1="0%" y1="0%" x2="100%" y2="100%">
      <stop offset="0%" style="stop-color:#4ecdc4"/>
      <stop offset="100%" style="stop-color:#44a08d"/>
    </linearGradient>
  </defs>
  
  <!-- Background -->
  <rect width="800" height="300" fill="url(#bg)"/>
  
  <!-- Background glow effects -->
  <circle cx="160" cy="240" r="80" fill="#00ff88" opacity="0.1"/>
  <circle cx="640" cy="60" r="60" fill="#ff6b6b" opacity="0.08"/>
  
  <!-- Lightning bolt -->
  <polygon points="720,30 710,50 715,50 705,70 720,50 715,50" fill="#00ff88"/>
  <circle cx="715" cy="50" r="15" fill="#00ff88" opacity="0.3"/>
  
  <!-- Main Title -->
  <text x="50" y="80" font-family="Arial Black, sans-serif" font-size="42" font-weight="900" fill="url(#title-glow)">SEB ULTRA STACK</text>
  
  <!-- Title glow effect -->
  <text x="50" y="80" font-family="Arial Black, sans-serif" font-size="42" font-weight="900" fill="#00ff88" opacity="0.3">SEB ULTRA STACK</text>
  
  <!-- Subtitle -->
  <text x="50" y="110" font-family="Arial" font-size="18" font-weight="bold" fill="#00ff88">BAD TO THE BONE HOSTING</text>
  
  <!-- Tech Badges Row 1 -->
  <rect x="50" y="130" width="85" height="25" rx="12" fill="url(#badge1)"/>
  <text x="92" y="147" font-family="Arial" font-size="10" font-weight="bold" text-anchor="middle" fill="#000">WORDPRESS</text>
  
  <rect x="145" y="130" width="90" height="25" rx="12" fill="url(#badge2)"/>
  <text x="190" y="147" font-family="Arial" font-size="10" font-weight="bold" text-anchor="middle" fill="#000">WOOCOMMERCE</text>
  
  <rect x="245" y="130" width="55" height="25" rx="12" fill="url(#badge1)"/>
  <text x="272" y="147" font-family="Arial" font-size="10" font-weight="bold" text-anchor="middle" fill="#000">NGINX</text>
  
  <rect x="310" y="130" width="60" height="25" rx="12" fill="url(#badge2)"/>
  <text x="340" y="147" font-family="Arial" font-size="10" font-weight="bold" text-anchor="middle" fill="#000">PHP 8.3</text>
  
  <rect x="380" y="130" width="50" height="25" rx="12" fill="url(#badge1)"/>
  <text x="405" y="147" font-family="Arial" font-size="10" font-weight="bold" text-anchor="middle" fill="#000">REDIS</text>
  
  <!-- Tech Badges Row 2 -->
  <rect x="50" y="165" width="70" height="25" rx="12" fill="url(#badge2)"/>
  <text x="85" y="182" font-family="Arial" font-size="10" font-weight="bold" text-anchor="middle" fill="#000">MARIADB</text>
  
  <rect x="130" y="165" width="85" height="25" rx="12" fill="url(#badge1)"/>
  <text x="172" y="182" font-family="Arial" font-size="10" font-weight="bold" text-anchor="middle" fill="#000">CLOUDFLARE</text>
  
  <rect x="225" y="165" width="40" height="25" rx="12" fill="url(#badge2)"/>
  <text x="245" y="182" font-family="Arial" font-size="10" font-weight="bold" text-anchor="middle" fill="#000">UFW</text>
  
  <rect x="275" y="165" width="70" height="25" rx="12" fill="url(#badge1)"/>
  <text x="310" y="182" font-family="Arial" font-size="10" font-weight="bold" text-anchor="middle" fill="#000">FAIL2BAN</text>
  
  <!-- Features with lightning bolts -->
  <polygon points="50,210 45,220 48,220 43,230 50,220 48,220" fill="#00ff88"/>
  <text x="60" y="225" font-family="Arial" font-size="14" fill="#ffffff">SECURE</text>
  
  <polygon points="150,210 145,220 148,220 143,230 150,220 148,220" fill="#00ff88"/>
  <text x="160" y="225" font-family="Arial" font-size="14" fill="#ffffff">SCALABLE</text>
  
  <polygon points="260,210 255,220 258,220 253,230 260,220 258,220" fill="#00ff88"/>
  <text x="270" y="225" font-family="Arial" font-size="14" fill="#ffffff">BLAZING FAST</text>
  
  <!-- Support Section -->
  <text x="550" y="120" font-family="Arial" font-size="16" font-weight="bold" fill="#ffffff" text-anchor="middle">SUPPORT THE STACK</text>
  
  <!-- Muscle icon -->
  <circle cx="520" cy="115" r="8" fill="#00ff88" opacity="0.8"/>
  <rect x="516" y="107" width="8" height="16" rx="4" fill="#00ff88" opacity="0.8"/>
  
  <!-- PayPal Button -->
  <rect x="480" y="140" width="140" height="40" rx="20" fill="url(#paypal-btn)"/>
  <rect x="480" y="140" width="140" height="40" rx="20" fill="#0070ba" opacity="0.3"/>
  <text x="550" y="165" font-family="Arial" font-size="12" font-weight="bold" fill="#ffffff" text-anchor="middle">DONATE PAYPAL</text>
  
  <!-- Credit card icon -->
  <rect x="500" y="155" width="20" height="12" rx="2" fill="#ffffff" opacity="0.8"/>
  <rect x="502" y="157" width="16" height="2" fill="#0070ba"/>
  
  <!-- GitHub Button -->
  <rect x="480" y="190" width="140" height="35" rx="17" fill="#24292e"/>
  <text x="550" y="212" font-family="Arial" font-size="12" font-weight="bold" fill="#ffffff" text-anchor="middle">GET THE STACK</text>
  
  <!-- Rocket icon -->
  <polygon points="505,200 510,195 515,200 515,210 505,210" fill="#ffffff"/>
  <polygon points="507,195 513,195 510,190 510,190" fill="#ff6b6b"/>
  
  <!-- Install Command Box -->
  <rect x="50" y="245" width="500" height="30" rx="5" fill="#1a1a1a" stroke="#00ff88" stroke-width="1"/>
  <text x="60" y="265" font-family="Monaco, monospace" font-size="12" fill="#00ff88">curl -sSL https://sebhosting.com/install.sh | bash</text>
  
  <!-- Skull decoration -->
  <circle cx="750" cy="270" r="12" fill="#ffffff" opacity="0.2"/>
  <circle cx="746" cy="266" r="2" fill="#000000"/>
  <circle cx="754" cy="266" r="2" fill="#000000"/>
  <rect x="748" y="272" width="4" height="6" fill="#000000"/>
</svg>
